<?xml version="1.0" encoding="UTF-8" standalone="no"?>
<svg
   width="512"
   height="512"
   viewBox="0 0 512 512"
   version="1.1"
   id="svg1"
   sodipodi:docname="grid.svg"
   inkscape:version="1.4 (e7c3feb100, 2024-10-09)"
   xmlns:inkscape="http://www.inkscape.org/namespaces/inkscape"
   xmlns:sodipodi="http://sodipodi.sourceforge.net/DTD/sodipodi-0.dtd"
   xmlns="http://www.w3.org/2000/svg"
   xmlns:svg="http://www.w3.org/2000/svg">
  <defs
     id="defs1" />
  <sodipodi:namedview
     id="namedview1"
     pagecolor="#505050"
     bordercolor="#eeeeee"
     borderopacity="1"
     inkscape:showpageshadow="0"
     inkscape:pageopacity="0"
     inkscape:pagecheckerboard="0"
     inkscape:deskcolor="#505050"
     inkscape:zoom="0.59524028"
     inkscape:cx="-15.959941"
     inkscape:cy="362.87867"
     inkscape:window-width="1918"
     inkscape:window-height="1054"
     inkscape:window-x="0"
     inkscape:window-y="24"
     inkscape:window-maximized="1"
     inkscape:current-layer="svg1" />
  <path
     fill="currentColor"
     d="m 128,152 a 24,24 0 0 1 24,-24 h 208 a 24,24 0 0 1 24,24 v 208 a 24,24 0 0 1 -24,24 H 152 a 24,24 0 0 1 -24,-24 z m 24,-8 a 8,8 0 0 0 -8,8 v 56 h 64 v -64 z m 56,80 h -64 v 64 h 64 z m 16,64 h 64 v -64 h -64 z m -16,16 h -64 v 56 a 8,8 0 0 0 8,8 h 56 z m 16,0 v 64 h 64 v -64 z m 80,0 v 64 h 56 a 8,8 0 0 0 8,-8 v -56 z m 0,-16 h 64 v -64 h -64 z m 0,-80 h 64 v -56 a 8,8 0 0 0 -8,-8 h -56 z m -16,0 v -64 h -64 v 64 z"
     id="path1"
     style="stroke-width:1;fill:#ffffff" />
</svg>
