<?xml version="1.0" encoding="UTF-8" standalone="no"?>
<!-- Created with Inkscape (http://www.inkscape.org/) -->

<svg
   width="128mm"
   height="128mm"
   viewBox="0 0 128 128"
   version="1.1"
   id="svg1"
   xml:space="preserve"
   xmlns="http://www.w3.org/2000/svg"
   xmlns:svg="http://www.w3.org/2000/svg"><defs
     id="defs1" /><g
     id="layer1"
     transform="translate(-59.193836,-68.724926)"><g
       id="g61"
       style="display:inline;stroke:#000000;stroke-opacity:1"
       transform="matrix(1.1637792,0,0,1.1637792,-1.0337919,-5.9729925)"><path
         id="rect61"
         style="display:inline;fill:#ffffff;fill-opacity:1;stroke:#000000;stroke-width:0.264583;stroke-dasharray:none;stroke-opacity:1"
         d="M 56.88855,66.698693 V 198.63534 H 189.20606 V 66.698693 Z m 91.10142,12.54187 9.74565,4.685502 2.96003,9.804053 -3.1905,16.638262 0.45578,4.32428 10.07432,1.58234 9.0346,6.6647 -0.95705,3.5662 1.42472,5.53196 -0.57671,3.43596 -11.93933,5.6038 -13.79037,1.87017 4.48397,5.97999 5.70921,12.06697 -0.74001,9.23974 -5.06377,2.99569 0.30386,3.99458 -5.52215,2.15749 -7.4843,-4.89582 -12.33671,-3.01532 -2.56212,-3.77135 -5.51697,-3.78375 -4.89531,11.96878 -8.35195,11.2727 -8.02896,2.26136 -4.412655,-2.58951 1.555461,-2.36161 -1.901176,-13.79554 2.162142,-17.14262 -2.648417,-0.4098 -4.526856,-4.3217 -3.463354,-3.63233 -8.4646,0.62632 -6.665743,-4.84932 -2.764689,-6.62854 0.727604,-4.42815 2.575553,-3.3507 15.673462,-4.30103 3.6127,-2.81688 4.772318,0.59324 3.11816,-1.39888 -1.757002,-7.22901 0.566373,-10.70219 0.665589,-15.730825 4.15634,-2.074292 4.50773,0.902788 9.55601,7.319966 4.90874,10.764713 5.87768,-2.521288 6.86212,-4.519621 z"
         transform="matrix(0.85926953,0,0,0.85926953,0.88830689,5.1324108)" /><g
         id="g36"
         style="display:inline;stroke:#000000;stroke-width:3;stroke-dasharray:none;stroke-opacity:1"><path
           id="path31"
           style="display:inline;fill:none;fill-opacity:1;stroke:#000000;stroke-width:3;stroke-dasharray:none;stroke-opacity:1"
           d="m 90.274885,118.10984 c 0.308185,2.13825 2.365913,5.83083 2.978619,6.89905 -1.289455,-2.64906 -2.501773,-5.24397 -2.978619,-6.89905 z m 3.338292,7.63616 c 0.312638,1.04693 2.933816,10.60922 -5.806709,10.76619 -0.661079,0.0119 -1.261669,-0.004 -1.818788,-0.04 -3.4738,11.67131 -1.358133,9.36016 -2.135387,17.97784 3.140172,12.53465 -0.846784,9.52466 -0.846784,9.52466 2.808945,6.1386 16.048437,5.20205 23.342281,-18.60705 -3.83964,-3.61748 -7.956717,-8.40884 -9.497119,-12.66979 -0.54329,-1.5028 -1.892601,-4.20477 -3.237494,-6.95188 z" /><path
           id="path32"
           style="display:inline;fill:none;fill-opacity:1;stroke:#000000;stroke-width:3;stroke-dasharray:none;stroke-opacity:1"
           d="m 135.3396,103.61416 c -0.0128,0.0369 -0.0226,0.0705 -0.0355,0.10746 -5.68905,11.76155 -19.04009,12.1648 -29.23692,10.44826 1.16814,0.23864 2.33684,0.47902 3.5168,0.70202 7.79722,1.6507 12.3867,4.53127 15.56315,7.46254 2.04385,1.88609 3.82786,3.69955 5.3791,5.43727 12.77689,0.0637 23.23676,-5.47811 23.26014,-8.7023 0.19702,-1.71708 -1.6417,-2.26362 -1.67936,-4.05453 -0.0373,-1.77368 1.84148,-2.48544 1.18026,-3.5381 -0.92682,-1.47551 -5.47908,-6.82415 -17.94765,-7.86262 z" /><path
           id="path33"
           style="display:inline;fill:none;fill-opacity:1;stroke:#000000;stroke-width:3;stroke-dasharray:none;stroke-opacity:1"
           d="m 91.184279,76.189374 c -1.081534,0.0029 -1.888303,0.41749 -2.261051,1.297484 -2.87383,-0.02991 -2.550121,0.495993 -2.550121,0.495993 0,0 0.253102,13.30516 -0.350347,14.457937 -0.514248,0.982366 -1.096739,6.006463 1.121644,14.390882 1.743165,-0.83464 4.513369,-1.49855 8.859483,-1.18425 -0.128977,0.54077 -1.167733,1.72964 -2.186008,3.00881 -1.975614,2.21451 -1.908483,2.53636 -1.908483,2.53636 0,0 -0.132695,2.07044 -0.600786,3.80142 2.407525,1.23153 5.711689,0.22812 8.74448,-2.1265 -4.208506,-1.11408 -7.053577,-2.26505 -7.053577,-2.26505 0,0 7.988577,-11.783684 14.296307,-17.548453 C 104.58195,83.02674 95.599066,76.177475 91.184279,76.189374 Z" /><path
           style="display:inline;fill:none;fill-opacity:1;stroke:#000000;stroke-width:3;stroke-linecap:round;stroke-dasharray:none;stroke-opacity:1"
           d="m 93.735059,154.79199 c 0,0 3.45284,-7.72544 3.230872,-17.2172 -0.0746,-3.18992 -0.606861,-5.98384 -0.606861,-5.98384"
           id="path34" /><path
           style="fill:none;fill-opacity:1;stroke:#000000;stroke-width:3;stroke-linecap:round;stroke-dasharray:none;stroke-opacity:1"
           d="m 151.96964,115.29242 c 0,0 -2.47679,0.96892 -11.42926,1.37592 -2.519,0.11452 -7.41598,-0.19427 -7.41598,-0.19427"
           id="path35" /><path
           style="fill:none;fill-opacity:1;stroke:#000000;stroke-width:3;stroke-linecap:round;stroke-dasharray:none;stroke-opacity:1"
           d="m 95.917931,91.034118 c 0,0 1.619384,4.807276 1.632601,7.145387 0.01602,2.833835 -1.516029,7.614205 -1.516029,7.614205"
           id="path36" /></g><g
         id="g45"
         style="display:inline;stroke:#000000;stroke-width:3;stroke-dasharray:none;stroke-opacity:1"><path
           style="display:inline;fill:none;fill-opacity:1;stroke:#000000;stroke-width:3;stroke-linecap:butt;stroke-dasharray:none;stroke-opacity:1"
           d="m 134.28541,157.51842 c 0,0 -2.40003,3.38803 -10.40696,-2.72418 -8.36019,0.10688 -10.35799,-1.38253 -13.04979,-5.60807 -4.39769,-3.2667 -11.790665,-10.43786 -13.977949,-16.48816 -1.322814,-3.65907 -7.34249,-14.20982 -6.757731,-16.05321 1.069047,-2.77373 1.740228,-2.24086 2.613494,-5.57398 4.146854,1.50172 10.232596,2.54543 16.877356,3.80123 7.79723,1.6507 12.38689,4.53129 15.56334,7.46256 21.81543,20.13154 14.03513,31.99574 9.41823,31.65177 -0.28928,4.67083 -0.27999,3.53204 -0.27999,3.53204 z"
           id="path40" /><path
           style="display:inline;fill:none;fill-opacity:1;stroke:#000000;stroke-width:3;stroke-linecap:butt;stroke-dasharray:none;stroke-opacity:1"
           d="m 60.71558,118.75852 0.802764,-0.0684 c 0,0 -3.432982,-5.65964 16.374454,-8.66306 2.784351,-1.10792 2.461032,-2.5103 4.653357,-2.57212 2.192326,-0.0618 1.845992,1.73614 1.845992,1.73614 0,0 1.821951,-4.25142 11.611831,-3.54344 -0.128977,0.54077 -1.167956,1.72936 -2.186232,3.00854 -1.975616,2.21451 -1.908388,2.53624 -1.908388,2.53624 0,0 -0.263121,4.40098 -1.465208,5.72772 -1.20209,1.32674 3.111899,8.62462 3.111899,8.62462 0,0 3.49145,10.80128 -5.749457,10.96723 -9.240908,0.16595 -7.778585,-4.59277 -10.888843,-7.18398 -2.679939,1.80156 -6.718802,1.11418 -6.718802,1.11418 0,0 -10.010827,-5.36319 -9.483367,-11.68365 z"
           id="path41" /><path
           style="display:inline;fill:none;fill-opacity:1;stroke:#000000;stroke-width:3;stroke-linecap:butt;stroke-dasharray:none;stroke-opacity:1"
           d="m 128.08338,72.505995 1.08382,1.721033 c 0,0 16.67431,-0.620348 6.13684,29.494542 -9.78644,20.23255 -42.304468,6.88073 -42.304468,6.88073 0,0 15.241918,-22.488016 20.241788,-20.533348 13.49713,-12.135312 14.84202,-17.562957 14.84202,-17.562957 z"
           id="path42" /><path
           style="fill:none;fill-opacity:1;stroke:#000000;stroke-width:3;stroke-linecap:round;stroke-dasharray:none;stroke-opacity:1"
           d="m 129.86473,148.10637 c 0,0 -7.74463,-8.73588 -12.28016,-13.01821 -4.21708,-3.98166 -13.32278,-10.34076 -13.32278,-10.34076"
           id="path43" /><path
           style="display:inline;fill:none;fill-opacity:1;stroke:#000000;stroke-width:3;stroke-linecap:round;stroke-dasharray:none;stroke-opacity:1"
           d="m 68.552489,119.84336 c 0,0 8.013855,1.49255 13.522055,0.99151 5.5082,-0.50105 8.130098,-2.91805 8.130098,-2.91805"
           id="path44" /><path
           style="display:inline;fill:none;fill-opacity:1;stroke:#000000;stroke-width:3;stroke-linecap:round;stroke-dasharray:none;stroke-opacity:1"
           d="m 129.32561,80.682966 c 0,0 -0.53216,7.019905 -5.12382,12.998279 -5.74087,7.474655 -10.60325,8.802235 -10.60325,8.802235"
           id="path45" /></g><g
         id="g60"
         transform="rotate(-4.5966123,106.66747,112.6068)"
         style="display:inline;stroke:#000000;stroke-opacity:1"><g
           id="g49"
           style="display:inline;stroke:#000000;stroke-opacity:1"><path
             style="display:inline;fill:none;fill-opacity:1;stroke:#000000;stroke-width:3;stroke-linecap:round;stroke-dasharray:none;stroke-opacity:1"
             d="m 91.589862,113.34457 c 0,0 13.257568,25.55991 17.774048,13.65481"
             id="path46" /><path
             style="fill:none;fill-opacity:1;stroke:#000000;stroke-width:4;stroke-linecap:round;stroke-dasharray:none;stroke-opacity:1"
             d="m 109.20354,126.83139 -0.58753,-0.5959"
             id="path47" /><path
             style="fill:none;fill-opacity:1;stroke:#000000;stroke-width:4;stroke-linecap:round;stroke-dasharray:none;stroke-opacity:1"
             d="m 109.62901,126.97264 1.51676,-0.51865"
             id="path48" /><path
             style="fill:none;fill-opacity:1;stroke:#000000;stroke-width:4;stroke-linecap:round;stroke-dasharray:none;stroke-opacity:1"
             d="m 109.51236,127.75571 -0.11053,0.88881"
             id="path49" /></g><g
           id="g51"
           style="display:inline;stroke:#000000;stroke-opacity:1"><path
             style="display:inline;fill:none;fill-opacity:1;stroke:#000000;stroke-width:3;stroke-linecap:round;stroke-dasharray:none;stroke-opacity:1"
             d="m 91.906454,111.52704 c 0,0 2.301139,1.21933 3.545059,2.98544 1.24392,1.7661 2.793045,9.23375 6.135177,6.52451"
             id="path50" /><path
             style="fill:none;fill-opacity:1;stroke:#000000;stroke-width:4;stroke-linecap:round;stroke-dasharray:none;stroke-opacity:1"
             d="m 102.68583,119.85109 2.13063,-2.36047"
             id="path51" /></g><g
           id="g53"
           style="display:inline;stroke:#000000;stroke-opacity:1"><path
             style="display:inline;fill:none;fill-opacity:1;stroke:#000000;stroke-width:3;stroke-linecap:round;stroke-dasharray:none;stroke-opacity:1"
             d="m 99.650396,131.00319 c 0,0 -5.252567,-15.89735 -8.356743,-16.14495"
             id="path52" /><path
             style="fill:none;fill-opacity:1;stroke:#000000;stroke-width:4;stroke-linecap:round;stroke-dasharray:none;stroke-opacity:1"
             d="m 100.17511,132.01336 2.87123,4.79083"
             id="path53" /></g><g
           id="g55"
           style="display:inline;stroke:#000000;stroke-opacity:1"><path
             style="display:inline;fill:none;fill-opacity:1;stroke:#000000;stroke-width:3;stroke-linecap:round;stroke-dasharray:none;stroke-opacity:1"
             d="m 107.87658,126.09023 c 0,0 -3.4101,0.99304 -6.89185,-1.38394 -3.481762,-2.37697 -6.075163,-11.15222 -9.201834,-12.17249"
             id="path54" /><path
             style="fill:none;fill-opacity:1;stroke:#000000;stroke-width:4;stroke-linecap:round;stroke-dasharray:none;stroke-opacity:1"
             d="m 108.9548,126.08859 7.78943,1.30663"
             id="path55" /></g><g
           id="g57"
           style="display:inline;stroke:#000000;stroke-opacity:1"><path
             style="display:inline;fill:none;fill-opacity:1;stroke:#000000;stroke-width:3;stroke-linecap:round;stroke-dasharray:none;stroke-opacity:1"
             d="m 103.11112,123.13415 c 0,0 -2.69051,0.89347 -4.597687,-0.37166 -1.907172,-1.26513 -5.759598,-10.09725 -6.806533,-9.87264"
             id="path56" /><path
             style="fill:none;fill-opacity:1;stroke:#000000;stroke-width:4;stroke-linecap:round;stroke-dasharray:none;stroke-opacity:1"
             d="m 104.12337,122.56243 4.50691,-2.47287"
             id="path57" /></g><g
           id="g59"
           style="display:inline;stroke:#000000;stroke-opacity:1"><path
             style="display:inline;fill:none;fill-opacity:1;stroke:#000000;stroke-width:3;stroke-linecap:round;stroke-dasharray:none;stroke-opacity:1"
             d="m 91.547835,112.73609 c 0,0 2.607907,7.39286 13.319735,17.60532"
             id="path58" /><path
             style="fill:none;fill-opacity:1;stroke:#000000;stroke-width:4;stroke-linecap:round;stroke-dasharray:none;stroke-opacity:1"
             d="m 105.88074,131.21961 5.40468,4.01219"
             id="path59" /></g></g><path
         style="display:inline;fill:#000000;fill-opacity:1;stroke:#000000;stroke-width:3;stroke-dasharray:none;stroke-opacity:1"
         d="m 93.219657,111.01015 c 0,0 9.713603,-2.95701 9.588793,-3.36879 -0.14145,-0.46668 -7.730897,-0.49812 -7.730897,-0.49812 l -2.540819,3.47157 -0.660138,1.62923 c 0,0 -3.888833,5.8958 -3.896873,6.52133 -0.005,0.38836 2.61927,-1.70364 2.61927,-1.70364 l 0.272607,2.3307 0.975039,2.17661 0.837697,2.03562 c 0,0 1.650079,4.26027 2.572656,4.12204 0.772967,-0.11581 -2.235227,-5.98954 -2.235227,-5.98954 0,0 3.73048,-0.2546 4.360082,-0.3869 0.537199,-0.11288 -3.405659,-5.48746 -2.862539,-6.0868 0.834511,-0.9209 10.509132,-0.27499 10.492532,-1.21879 -0.0166,-0.94383 -11.792183,-3.0345 -11.792183,-3.0345 z"
         id="path60" /></g></g></svg>
